<?xml version="1.0" encoding="UTF-8"?>
<!-- Generated by Pixelmator Pro 2.4.2 -->
<svg width="32" height="32" viewBox="0 0 32 32" xmlns="http://www.w3.org/2000/svg" xmlns:xlink="http://www.w3.org/1999/xlink">
    <path id="Trazado" fill="#6366f1" stroke="none" d="M 16 -1.9e-05 L 16 -1.9e-05 C 24.836555 -1.9e-05 32 7.163424 32 15.999979 L 32 15.999979 C 32 24.836535 24.836555 31.999979 16 31.999979 L 16 31.999979 C 7.163444 31.999979 0 24.836535 0 15.999979 L 0 15.999979 C 0 7.163424 7.163444 -1.9e-05 16 -1.9e-05 Z"/>
    <path id="path1" fill="#4f46e5" stroke="none" d="M 18.277 0.159979 C 26.035 1.266979 32 7.937979 32 15.999979 C 32 24.836979 24.837 31.999979 16 31.999979 C 12.173614 32.00568 8.4729 30.634506 5.574 28.136978 L 18.277 0.160978 Z"/>
    <linearGradient id="linearGradient1" x1="7.346537" y1="8.469932" x2="25.743" y2="34.405777" gradientUnits="userSpaceOnUse">
        <stop offset="1e-05" stop-color="#a5b4fc" stop-opacity="0"/>
        <stop offset="1" stop-color="#a5b4fc" stop-opacity="1"/>
    </linearGradient>
    <path id="path2" fill="url(#linearGradient1)" stroke="none" d="M 7.404 2.502979 L 25.743 28.69298 C 22.950525 30.842648 19.524054 32.005672 16 31.999979 C 7.163 31.999979 0 24.836979 0 15.999979 C 0 10.326979 2.952 5.343979 7.404 2.502979 Z"/>
    <linearGradient id="linearGradient2" x1="28.616754" y1="14.925033" x2="8.899008" y2="31.999979" gradientUnits="userSpaceOnUse">
        <stop offset="1e-05" stop-color="#38bdf8" stop-opacity="0"/>
        <stop offset="1" stop-color="#38bdf8" stop-opacity="1"/>
    </linearGradient>
    <path id="path3" fill="url(#linearGradient2)" stroke="none" d="M 2.223 24.139978 L 29.777 7.85998 C 31.236401 10.324087 32.004356 13.136126 32 15.999979 C 32 24.836979 24.837 31.999979 16 31.999979 C 10.136 31.999979 5.009 28.84598 2.223 24.139978 Z"/>
</svg>
